<?xml version="1.0" encoding="utf-8"?>
<!-- Generator: Adobe Illustrator 24.0.1, SVG Export Plug-In . SVG Version: 6.00 Build 0)  -->
<svg version="1.1" id="Capa_1" xmlns="http://www.w3.org/2000/svg" xmlns:xlink="http://www.w3.org/1999/xlink" x="0px" y="0px"
	 viewBox="0 0 140.2 117.1" style="enable-background:new 0 0 140.2 117.1;" xml:space="preserve">
<style type="text/css">
	.st0{fill:none;stroke:#AF8566;stroke-width:3.3;stroke-linecap:round;stroke-miterlimit:10;}
</style>
<g>
	<path class="st0" d="M86.8,16v3.5c0,5.6-4.5,10.1-10.1,10.1H62.7c-5.6,0-10.1-4.5-10.1-10.1V16"/>
	<path class="st0" d="M98.7,16.1H79.1c-0.8-4.3-4.5-7.5-9-7.5c-4.5,0-8.2,3.2-9,7.5H41.5c-4.5,0-8.1,3.6-8.1,8.1v77.3
		c0,4.5,3.6,8.1,8.1,8.1h57.2c4.5,0,8.1-3.6,8.1-8.1V24.3C106.9,19.8,103.2,16.1,98.7,16.1z"/>
	<polyline class="st0" points="54.2,64.4 64.6,74.6 85,54.9 	"/>
</g>
</svg>
