<?xml version="1.0" encoding="utf-8"?>
<!-- Generator: Adobe Illustrator 24.0.2, SVG Export Plug-In . SVG Version: 6.00 Build 0)  -->
<svg version="1.1" id="Capa_1" xmlns="http://www.w3.org/2000/svg" xmlns:xlink="http://www.w3.org/1999/xlink" x="0px" y="0px"
	 viewBox="0 0 158.3 106.5" style="enable-background:new 0 0 158.3 106.5;" xml:space="preserve">
<style type="text/css">
	.st0{fill:none;stroke:#B97600;stroke-width:3.3;stroke-linecap:round;stroke-miterlimit:10;}
</style>
<g>
	<g id="Capa_1_1_">
		<circle class="st0" cx="55.2" cy="75" r="8.8"/>
		<circle class="st0" cx="117.5" cy="75" r="8.8"/>
	</g>
	<g id="gas3">
		<line class="st0" x1="19.9" y1="54.3" x2="27.7" y2="54.3"/>
	</g>
	<g id="gas2">
		<line class="st0" x1="12" y1="61.1" x2="26.2" y2="61.1"/>
	</g>
	<g id="gas1">
		<line class="st0" x1="19.9" y1="67.9" x2="27.7" y2="67.9"/>
	</g>
	<g id="pisoMovimiento">
		<g>
			<line class="st0" x1="57.9" y1="85.1" x2="71.7" y2="85.1"/>
			<line class="st0" x1="39.2" y1="85.1" x2="53" y2="85.1"/>
			<line class="st0" x1="20.5" y1="85.1" x2="34.3" y2="85.1"/>
		</g>
	</g>
	<g id="piso">
		<line class="st0" x1="12.4" y1="85.1" x2="145.7" y2="85.1"/>
	</g>
	<g id="cabina">
		<g>
			<line class="st0" x1="103.7" y1="75.3" x2="68.1" y2="75.3"/>
			<path class="st0" d="M42.3,75.3h-4c-2.8,0-5.1-2.5-5.1-5.6V24.5c0-3.1,2.3-5.6,5.1-5.6h92.4c2.8,0,5.1,2.5,5.1,5.6l4.6,21.1v24.2
				c0,3.1-2.3,5.6-5.1,5.6h-5"/>
			<path class="st0" d="M66.4,48.7H43.6c-1.7,0-3-1.3-3-3V29.5c0-1.7,1.3-3,3-3h22.9c1.7,0,3,1.3,3,3v16.2
				C69.4,47.4,68.1,48.7,66.4,48.7z"/>
			<path class="st0" d="M102.2,48.7H79.4c-1.7,0-3-1.3-3-3V29.5c0-1.7,1.3-3,3-3h22.9c1.7,0,3,1.3,3,3v16.2
				C105.2,47.4,103.9,48.7,102.2,48.7z"/>
			<path class="st0" d="M140.3,53.6l-25.1-4.8c-1.7,0-3.1-1.5-3.1-3.4V29.9c0-1.9,1.4-3.4,3.1-3.4h20.6"/>
			<line class="st0" x1="55.2" y1="27" x2="55.2" y2="48.3"/>
			<line class="st0" x1="90.8" y1="27" x2="90.8" y2="48.3"/>
			<line class="st0" x1="111" y1="55.4" x2="116.6" y2="55.4"/>
		</g>
	</g>
</g>
</svg>
