<?xml version="1.0" encoding="utf-8"?>
<!-- Generator: Adobe Illustrator 27.5.0, SVG Export Plug-In . SVG Version: 6.00 Build 0)  -->
<svg version="1.1" id="Capa_1" xmlns="http://www.w3.org/2000/svg" xmlns:xlink="http://www.w3.org/1999/xlink" x="0px" y="0px"
	 viewBox="0 0 120 120" style="enable-background:new 0 0 120 120;" xml:space="preserve">
<style type="text/css">
	.Sombra_x0020_paralela{fill:none;}
	.Resplandor_x0020_externo_x0020_5_x0020_pt_x002E_{fill:none;}
	.Neón_x0020_azul{fill:none;stroke:#8AACDA;stroke-width:7;stroke-linecap:round;stroke-linejoin:round;}
	.Resalte_x0020_cromado{fill:url(#SVGID_1_);stroke:#FFFFFF;stroke-width:0.3629;stroke-miterlimit:1;}
	.A_x0020_todo_x0020_ritmo_GS{fill:#FFDD00;}
	.Alyssa_GS{fill:#A6D0E4;}
	.st0{fill:none;stroke:#AF8566;stroke-width:1.7553;stroke-miterlimit:10;}
	.st1{fill:none;stroke:#AF8566;stroke-width:1.5584;stroke-miterlimit:10;}
</style>
<linearGradient id="SVGID_1_" gradientUnits="userSpaceOnUse" x1="-900.2338" y1="-480.0519" x2="-900.2338" y2="-481.0519">
	<stop  offset="0" style="stop-color:#656565"/>
	<stop  offset="0.618" style="stop-color:#1B1B1B"/>
	<stop  offset="0.6292" style="stop-color:#545454"/>
	<stop  offset="0.9831" style="stop-color:#3E3E3E"/>
</linearGradient>
<g>
	<path class="st0" d="M60,3.3C39.7,3.3,23.3,19.7,23.3,40c0,31.6,25,55.5,33.7,62.8c1.7,1.4,4.2,1.4,5.9,0
		c8.7-7.4,33.7-31.3,33.7-62.8C96.7,19.7,80.3,3.3,60,3.3z M60,63.5c-13,0-23.5-10.5-23.5-23.5S47,16.5,60,16.5
		C73,16.5,83.5,27,83.5,40S73,63.5,60,63.5z"/>
</g>
<path class="st1" d="M73.2,93.2c13.7,1.7,23.4,6.2,23.4,11.4c0,6.7-16.1,12.2-35.9,12.2s-35.9-5.5-35.9-12.2c0-5,9.1-9.4,22-11.2"/>
</svg>
