<?xml version="1.0" encoding="utf-8"?>
<!-- Generator: Adobe Illustrator 24.0.2, SVG Export Plug-In . SVG Version: 6.00 Build 0)  -->
<svg version="1.1" id="Capa_1" xmlns="http://www.w3.org/2000/svg" xmlns:xlink="http://www.w3.org/1999/xlink" x="0px" y="0px"
	 viewBox="0 0 78.8 106.5" style="enable-background:new 0 0 78.8 106.5;" xml:space="preserve">
<style type="text/css">
	.st0{fill:#B97600;}
	.st1{fill:none;stroke:#B97600;stroke-width:3.3;stroke-linecap:round;stroke-miterlimit:10;}
	.st2{fill:none;stroke:#B97600;stroke-width:3.3;stroke-linecap:round;stroke-miterlimit:10;}
</style>
<g>
	<g>
		<path class="st0" d="M29.8,20.6c1.6-0.2,3.3-0.5,5-0.8c1.1-0.2,1.8-0.8,2.4-1.8c0.7-1.5,1.5-2.9,2.2-4.5c0.2,0.2,0.2,0.3,0.3,0.5
			c0.7,1.2,1.3,2.4,1.8,3.7c0.6,1.4,1.7,2,3.1,2.1c1.5,0.2,2.9,0.5,4.6,0.7c-0.2,0.2-0.4,0.5-0.6,0.7c-0.9,0.9-1.8,1.8-2.8,2.7
			c-1.1,1-1.3,2.1-1.1,3.4c0.2,1.5,0.5,3.1,0.8,4.7c-0.8-0.4-1.5-0.8-2.1-1.1c-0.8-0.5-1.7-0.8-2.4-1.3c-1-0.5-2-0.5-2.9,0
			c-1.1,0.6-2.4,1.2-3.4,1.8c-0.3,0.2-0.7,0.3-1.1,0.6c0.2-1.5,0.5-3.1,0.8-4.5c0.3-1.5-0.1-2.8-1.3-3.9
			C31.8,22.8,30.8,21.7,29.8,20.6z M32.7,21.8c2.8,2,3.4,4.6,2.6,7.8c2.8-1.9,5.5-1.8,8.2,0c-0.9-3.2-0.2-5.8,2.5-7.9
			c-3.4,0-5.5-1.7-6.7-4.8C38.3,20.2,36,21.6,32.7,21.8z"/>
	</g>
	<g>
		<path class="st0" d="M12.4,24.5c1.1-0.2,2.4-0.4,3.7-0.6c0.8-0.2,1.3-0.6,1.7-1.3c0.5-1.1,1.1-2.1,1.6-3.3
			c0.2,0.2,0.2,0.2,0.2,0.4c0.5,0.9,0.9,1.8,1.3,2.7c0.5,1,1.2,1.5,2.3,1.5c1.1,0.2,2.1,0.3,3.3,0.5c-0.2,0.2-0.3,0.3-0.5,0.5
			c-0.7,0.7-1.4,1.4-2,2c-0.8,0.7-1,1.5-0.8,2.4c0.2,1.1,0.4,2.2,0.6,3.4c-0.6-0.3-1.1-0.5-1.5-0.8c-0.6-0.3-1.2-0.7-1.8-0.9
			c-0.7-0.4-1.5-0.3-2.1,0c-0.8,0.5-1.7,0.8-2.5,1.3c-0.2,0.2-0.5,0.2-0.8,0.4c0.2-1.1,0.3-2.2,0.5-3.3c0.2-1.1-0.1-2-0.9-2.8
			C13.7,26.1,13.1,25.3,12.4,24.5z M14.9,25.4c1.8,1.4,2.3,3.1,1.7,5.1c1.8-1.2,3.6-1.2,5.4,0c-0.7-2.1-0.2-3.8,1.7-5.2
			c-2.3,0-3.7-1.1-4.4-3.2C18.6,24.4,17.1,25.3,14.9,25.4z"/>
	</g>
	<g>
		<path class="st0" d="M52.4,24.5c1.1-0.2,2.4-0.4,3.7-0.6c0.8-0.2,1.3-0.6,1.7-1.3c0.5-1.1,1.1-2.1,1.6-3.3
			c0.2,0.2,0.2,0.2,0.2,0.4c0.5,0.9,0.9,1.8,1.3,2.7c0.5,1,1.2,1.5,2.3,1.5c1.1,0.1,2.1,0.3,3.3,0.5c-0.2,0.2-0.3,0.3-0.5,0.5
			c-0.7,0.7-1.4,1.4-2,2c-0.8,0.7-1,1.5-0.8,2.4c0.2,1.1,0.4,2.2,0.6,3.4c-0.6-0.3-1.1-0.5-1.5-0.8c-0.6-0.3-1.2-0.7-1.8-0.9
			c-0.7-0.4-1.5-0.3-2.1,0c-0.8,0.5-1.7,0.8-2.5,1.3c-0.2,0.2-0.5,0.2-0.8,0.4c0.2-1.1,0.3-2.2,0.5-3.3c0.2-1.1-0.1-2-0.9-2.8
			C53.8,26.1,53.1,25.3,52.4,24.5z M55,25.4c1.8,1.4,2.3,3.1,1.7,5.1c1.8-1.2,3.6-1.2,5.4,0c-0.7-2.1-0.2-3.8,1.7-5.2
			c-2.3,0-3.7-1.1-4.4-3.2C58.6,24.4,57.2,25.3,55,25.4z"/>
	</g>
	<path class="st1" d="M14.3,89.6V40.5c0-2.1,1.8-3.9,3.9-3.9h42.5c2.1,0,3.9,1.8,3.9,3.9v49.2"/>
	<path class="st1" d="M27.1,89.7V81c0-1.1,1-2.1,2.1-2.1h19.3c1.1,0,2.1,1,2.1,2.1v8.7"/>
	<path class="st2" d="M29.2,49.9h-5c-0.4,0-0.7-0.3-0.7-0.7v-5c0-0.4,0.3-0.7,0.7-0.7h5c0.4,0,0.7,0.3,0.7,0.7v5
		C30,49.6,29.6,49.9,29.2,49.9z"/>
	<path class="st2" d="M41.8,49.9h-5c-0.4,0-0.7-0.3-0.7-0.7v-5c0-0.4,0.3-0.7,0.7-0.7h5c0.4,0,0.7,0.3,0.7,0.7v5
		C42.5,49.6,42.2,49.9,41.8,49.9z"/>
	<path class="st2" d="M54.4,49.9h-5c-0.4,0-0.7-0.3-0.7-0.7v-5c0-0.4,0.3-0.7,0.7-0.7h5c0.4,0,0.7,0.3,0.7,0.7v5
		C55.1,49.6,54.8,49.9,54.4,49.9z"/>
	<path class="st2" d="M29.2,61.5h-5c-0.4,0-0.7-0.3-0.7-0.7v-5c0-0.4,0.3-0.7,0.7-0.7h5c0.4,0,0.7,0.3,0.7,0.7v5
		C30,61.1,29.6,61.5,29.2,61.5z"/>
	<path class="st2" d="M41.8,61.5h-5c-0.4,0-0.7-0.3-0.7-0.7v-5c0-0.4,0.3-0.7,0.7-0.7h5c0.4,0,0.7,0.3,0.7,0.7v5
		C42.5,61.1,42.2,61.5,41.8,61.5z"/>
	<path class="st2" d="M54.4,61.5h-5c-0.4,0-0.7-0.3-0.7-0.7v-5c0-0.4,0.3-0.7,0.7-0.7h5c0.4,0,0.7,0.3,0.7,0.7v5
		C55.1,61.1,54.8,61.5,54.4,61.5z"/>
	<path class="st2" d="M29.2,73.1h-5c-0.4,0-0.7-0.3-0.7-0.7v-5c0-0.4,0.3-0.7,0.7-0.7h5c0.4,0,0.7,0.3,0.7,0.7v5
		C30,72.8,29.6,73.1,29.2,73.1z"/>
	<path class="st2" d="M41.8,73.1h-5c-0.4,0-0.7-0.3-0.7-0.7v-5c0-0.4,0.3-0.7,0.7-0.7h5c0.4,0,0.7,0.3,0.7,0.7v5
		C42.5,72.8,42.2,73.1,41.8,73.1z"/>
	<path class="st2" d="M54.4,73.1h-5c-0.4,0-0.7-0.3-0.7-0.7v-5c0-0.4,0.3-0.7,0.7-0.7h5c0.4,0,0.7,0.3,0.7,0.7v5
		C55.1,72.8,54.8,73.1,54.4,73.1z"/>
</g>
</svg>
