<?xml version="1.0" encoding="utf-8"?>
<!-- Generator: Adobe Illustrator 24.0.1, SVG Export Plug-In . SVG Version: 6.00 Build 0)  -->
<svg version="1.1" id="Capa_1" xmlns="http://www.w3.org/2000/svg" xmlns:xlink="http://www.w3.org/1999/xlink" x="0px" y="0px"
	 viewBox="0 0 140.2 117.1" style="enable-background:new 0 0 140.2 117.1;" xml:space="preserve">
<style type="text/css">
	.st0{fill:none;stroke:#AF8566;stroke-width:3;stroke-miterlimit:10;}
</style>
<g>
	<g>
		<path class="st0" d="M96.3,54.3V94c0,4.3-3.4,7.7-7.7,7.7H49.4c-4.3,0-7.7-3.4-7.7-7.7V54.3H96.3z"/>
		<line class="st0" x1="61.8" y1="101.7" x2="61.8" y2="54.1"/>
		<line class="st0" x1="75.1" y1="54.4" x2="75.1" y2="101.7"/>
	</g>
	<g>
		<line class="st0" x1="75.1" y1="54.1" x2="75.1" y2="36.6"/>
		<path class="st0" d="M98.4,54.3H37.8c-3.2,0-5.8-2.6-5.8-5.8v-6.4c0-3.2,2.6-5.8,5.8-5.8h60.6c3.2,0,5.8,2.6,5.8,5.8v6.4
			C104.3,51.7,101.6,54.3,98.4,54.3z"/>
		<path class="st0" d="M47.8,15.4c-5.3,0-8.6,2.1-8.6,5.5c0,6.1,10,14.5,28.8,15.1C66.7,30.4,62.1,15.4,47.8,15.4z"/>
		<path class="st0" d="M68.5,35.9c18.8-0.6,28.8-9,28.8-15.1c0-3.4-3.3-5.5-8.6-5.5C74.4,15.4,69.8,30.4,68.5,35.9z"/>
		<line class="st0" x1="61.8" y1="54.1" x2="61.8" y2="36.6"/>
	</g>
</g>
</svg>
