<svg width="26" height="23" viewBox="0 0 26 23" fill="none" xmlns="http://www.w3.org/2000/svg">
<path d="M6.65846 22.5398C5.54994 22.5398 4.5646 22.2934 3.70967 21.7935C2.19542 20.8661 1.12314 19.3084 0.492806 17.1131C-0.137525 14.8961 -0.159261 12.5921 0.427599 10.2012C1.10865 7.53499 2.44176 5.28898 4.42694 3.45595C6.36865 1.69537 8.61466 0.543389 11.1722 0V2.30397C9.41163 2.98501 7.87565 4.04281 6.56427 5.49185C5.18768 7.02783 4.23856 8.66524 3.71691 10.4041C3.53578 11.0851 3.43435 11.8749 3.41261 12.7805C3.41261 13.6644 3.68069 13.8528 4.22407 13.3601C4.97033 12.9326 5.78179 12.708 6.6657 12.6791C7.99882 12.6356 9.1508 13.0993 10.1217 14.0701C11.1142 15.0627 11.6142 16.2292 11.6142 17.5623C11.6142 19.0114 11.1505 20.1851 10.2231 21.0907C9.2305 22.0616 8.04229 22.547 6.6657 22.547L6.65846 22.5398ZM20.7938 22.5398C19.6853 22.5398 18.6999 22.2934 17.845 21.7935C16.3308 20.8661 15.2585 19.3084 14.6282 17.1131C13.9978 14.8961 13.9761 12.5921 14.563 10.2012C15.244 7.53499 16.5771 5.28898 18.5623 3.45595C20.504 1.69537 22.7573 0.543389 25.3076 0V2.30397C23.547 2.98501 22.011 4.04281 20.6996 5.49185C19.323 7.02783 18.3739 8.66524 17.8523 10.4041C17.6711 11.0851 17.5697 11.8749 17.548 12.7805C17.548 13.6644 17.816 13.8528 18.3594 13.3601C19.1057 12.9326 19.9171 12.708 20.8011 12.6791C22.1342 12.6356 23.2861 13.0993 24.257 14.0701C25.2496 15.0627 25.7495 16.2292 25.7495 17.5623C25.7495 19.0114 25.2858 20.1851 24.3584 21.0907C23.3658 22.0616 22.1776 22.547 20.8011 22.547L20.7938 22.5398Z" fill="#C64E83"/>
</svg>
